<?xml version="1.0" encoding="utf-8"?>
<!-- Generator: Adobe Illustrator 27.8.1, SVG Export Plug-In . SVG Version: 6.00 Build 0)  -->
<svg version="1.1" id="Layer_1" xmlns="http://www.w3.org/2000/svg" xmlns:xlink="http://www.w3.org/1999/xlink" x="0px" y="0px"
	 viewBox="0 0 250 250" style="enable-background:new 0 0 250 250;" xml:space="preserve">
<g>
	<path style="fill:#FDC131;" d="M63.5,146.1v55.7L237.5,67V11.3L63.5,146.1z"/>
	<path style="fill:#7E1D30;" d="M63.5,146.1l-50.9-44.8V157l50.9,44.8V146.1z"/>
	<path style="fill:#E92729;" d="M37.8,96.4c0-37.1,0.5-57.1,0.9-69.1c15-3.9,48.6-11.6,86.5-11.6c26.8,0,51.6,3.9,69,7.4l14.6-11.4
		C190.5,7.4,159.7,1.3,125,1.3c-41.7,0-78,8.8-93,13c-4.4,1.2-7.4,5.1-7.6,9.7c-0.2,10.7-0.9,29-0.9,64.5l14.1,12.5
		C37.8,99.5,37.8,98.1,37.8,96.4z"/>
	<path style="fill:#E92729;" d="M212.5,108c-0.5,32.5-3,52-7.9,64.3c-5.1,12.3-13,18.6-27.3,30.2l-3.5,2.8
		c-23.8,18.8-41.2,26.2-48.8,29c-6.9-2.3-22.4-9-43.3-24.8l-11.6,9c25.5,19.9,44.4,27.4,51.8,29.7c2.1,0.7,4.4,0.7,6.5,0
		c7.4-2.6,27.5-10.4,54.1-31.8c32.6-26,44.2-32,44.2-119.2L212.5,108z"/>
</g>
</svg>
